<svg width="1150" height="56" viewBox="0 0 1150 56" fill="none" xmlns="http://www.w3.org/2000/svg">
<path d="M25.0496 49.9999C11.2463 49.9999 0.0496474 38.7785 0.0744736 24.9751C0.0744736 14.9453 6.08242 5.88375 15.3426 1.96121C28.0784 -3.32678 42.7011 2.73082 47.9891 15.4915C53.2274 28.128 47.3436 42.6017 34.7815 48.0138C31.7031 49.3296 28.3764 49.9999 25.0496 49.9999ZM23.1629 21.0526C23.0387 21.0526 22.8898 21.0526 22.7656 21.0526C20.7795 21.0774 18.8679 21.6732 17.2294 22.7904C13.6544 25.3723 12.8351 30.3376 15.3922 33.9374C15.7895 34.5084 16.2612 35.0049 16.8073 35.4518C17.5521 36.1221 18.421 36.6683 19.3396 37.0903C20.3327 37.5124 21.3754 37.7358 22.4429 37.7854C22.5919 37.7854 22.7408 37.7854 22.8649 37.7854C24.7021 37.7854 26.5144 37.2144 28.0288 36.1966L28.4508 35.9235V31.6285C27.0109 32.9195 25.1738 33.6643 23.2373 33.7636C23.138 33.7636 23.0387 33.7636 22.9394 33.7636C21.4747 33.6891 20.0844 32.994 19.1658 31.852C18.2473 30.6851 17.999 29.1459 18.4955 27.7556C18.8431 26.8867 19.4886 26.1419 20.283 25.6454C21.1023 25.1489 22.0208 24.8262 22.9891 24.7268C23.2373 24.702 23.4856 24.702 23.7587 24.702C25.3724 24.7765 26.9613 25.0992 28.4508 25.6951V21.9463C26.7378 21.3753 24.9752 21.0774 23.1629 21.0526ZM24.9007 14.4488C25.0496 14.4488 25.1738 14.4488 25.3227 14.4488C26.7627 14.5233 28.1033 15.1439 29.0715 16.1866C30.0645 17.2542 30.6107 18.6444 30.6107 20.0843V33.9622C30.6107 35.6504 32.001 37.0407 33.6892 37.0407H37.7358V33.0933H34.9305V20.4319C34.9553 15.1191 30.7349 10.7745 25.4469 10.6256C25.2979 10.6256 25.149 10.6256 25.0248 10.6256C22.2691 10.5263 19.5879 11.4945 17.5521 13.3316C15.9384 14.8957 15.0695 17.0804 15.1192 19.3147H19.4389C19.3893 18.1479 19.7865 17.0059 20.5561 16.1122C21.6981 14.9701 23.287 14.3495 24.9007 14.4488Z" fill="white"/>
<path d="M76.3809 27.0879L81.5762 17.0938H84.5566L77.6934 29.5762V37H75.0684V29.5762L68.2051 17.0938H71.2129L76.3809 27.0879ZM85.1582 29.4668C85.1582 28.0176 85.4408 26.7142 86.0059 25.5566C86.5801 24.3991 87.373 23.5059 88.3848 22.877C89.4056 22.248 90.5677 21.9336 91.8711 21.9336C93.8854 21.9336 95.5124 22.6309 96.752 24.0254C98.0007 25.4199 98.625 27.2747 98.625 29.5898V29.7676C98.625 31.2077 98.347 32.502 97.791 33.6504C97.2441 34.7897 96.4557 35.6784 95.4258 36.3164C94.4049 36.9544 93.2292 37.2734 91.8984 37.2734C89.8932 37.2734 88.2663 36.5762 87.0176 35.1816C85.778 33.7871 85.1582 31.9414 85.1582 29.6445V29.4668ZM87.7012 29.7676C87.7012 31.4082 88.0794 32.7253 88.8359 33.7188C89.6016 34.7122 90.6224 35.209 91.8984 35.209C93.1836 35.209 94.2044 34.7077 94.9609 33.7051C95.7174 32.6934 96.0957 31.2806 96.0957 29.4668C96.0957 27.8444 95.7083 26.5319 94.9336 25.5293C94.168 24.5176 93.1471 24.0117 91.8711 24.0117C90.6224 24.0117 89.6152 24.5085 88.8496 25.502C88.084 26.4954 87.7012 27.9173 87.7012 29.7676ZM110.93 35.5371C109.945 36.6947 108.501 37.2734 106.596 37.2734C105.019 37.2734 103.816 36.8177 102.986 35.9062C102.166 34.9857 101.751 33.6276 101.742 31.832V22.207H104.271V31.7637C104.271 34.0059 105.183 35.127 107.006 35.127C108.938 35.127 110.223 34.4069 110.861 32.9668V22.207H113.391V37H110.984L110.93 35.5371ZM124.396 24.4766C124.014 24.4128 123.599 24.3809 123.152 24.3809C121.493 24.3809 120.368 25.0872 119.775 26.5V37H117.246V22.207H119.707L119.748 23.916C120.577 22.5944 121.753 21.9336 123.275 21.9336C123.768 21.9336 124.141 21.9974 124.396 22.125V24.4766ZM136.072 22.207L136.154 24.0664C137.285 22.6445 138.761 21.9336 140.584 21.9336C143.71 21.9336 145.287 23.6973 145.314 27.2246V37H142.785V27.2109C142.776 26.1445 142.53 25.3561 142.047 24.8457C141.573 24.3353 140.83 24.0801 139.818 24.0801C138.998 24.0801 138.278 24.2988 137.658 24.7363C137.038 25.1738 136.555 25.748 136.209 26.459V37H133.68V22.207H136.072ZM155.268 37.2734C153.262 37.2734 151.631 36.6172 150.373 35.3047C149.115 33.9831 148.486 32.2194 148.486 30.0137V29.5488C148.486 28.0814 148.764 26.7734 149.32 25.625C149.885 24.4674 150.669 23.5651 151.672 22.918C152.684 22.2617 153.777 21.9336 154.953 21.9336C156.876 21.9336 158.371 22.5671 159.438 23.834C160.504 25.1009 161.037 26.9147 161.037 29.2754V30.3281H151.016C151.052 31.7865 151.476 32.9668 152.287 33.8691C153.107 34.7624 154.146 35.209 155.404 35.209C156.298 35.209 157.054 35.0267 157.674 34.6621C158.294 34.2975 158.836 33.8145 159.301 33.2129L160.846 34.416C159.606 36.321 157.747 37.2734 155.268 37.2734ZM154.953 24.0117C153.932 24.0117 153.076 24.3854 152.383 25.1328C151.69 25.8711 151.262 26.9102 151.098 28.25H158.508V28.0586C158.435 26.7734 158.089 25.7799 157.469 25.0781C156.849 24.3672 156.01 24.0117 154.953 24.0117ZM177.074 33.5137L179.918 22.207H182.447L178.141 37H176.09L172.494 25.7891L168.994 37H166.943L162.65 22.207H165.166L168.078 33.2812L171.523 22.207H173.561L177.074 33.5137ZM192.824 37V24.1621H190.486V22.207H192.824V20.9492C192.824 19.2995 193.294 18.0143 194.232 17.0938C195.18 16.1732 196.516 15.7129 198.238 15.7129C199.259 15.7129 200.549 15.9909 202.107 16.5469L201.684 18.6797C200.544 18.224 199.46 17.9961 198.43 17.9961C197.345 17.9961 196.561 18.2422 196.078 18.7344C195.604 19.2174 195.367 19.9466 195.367 20.9219V22.207H198.389V24.1621H195.367V37H192.824ZM203.365 37H200.822V22.207H203.365V37ZM209.873 22.207L209.955 24.0664C211.085 22.6445 212.562 21.9336 214.385 21.9336C217.511 21.9336 219.088 23.6973 219.115 27.2246V37H216.586V27.2109C216.577 26.1445 216.331 25.3561 215.848 24.8457C215.374 24.3353 214.631 24.0801 213.619 24.0801C212.799 24.0801 212.079 24.2988 211.459 24.7363C210.839 25.1738 210.356 25.748 210.01 26.459V37H207.48V22.207H209.873ZM232.062 37C231.917 36.7083 231.798 36.1888 231.707 35.4414C230.531 36.6628 229.128 37.2734 227.496 37.2734C226.038 37.2734 224.839 36.8633 223.9 36.043C222.971 35.2135 222.506 34.1654 222.506 32.8984C222.506 31.3581 223.089 30.1641 224.256 29.3164C225.432 28.4596 227.081 28.0312 229.205 28.0312H231.666V26.8691C231.666 25.985 231.402 25.2832 230.873 24.7637C230.344 24.235 229.565 23.9707 228.535 23.9707C227.633 23.9707 226.876 24.1986 226.266 24.6543C225.655 25.11 225.35 25.6615 225.35 26.3086H222.807C222.807 25.5703 223.066 24.8594 223.586 24.1758C224.115 23.4831 224.826 22.9362 225.719 22.5352C226.621 22.1341 227.61 21.9336 228.686 21.9336C230.39 21.9336 231.725 22.362 232.691 23.2188C233.658 24.0664 234.159 25.2376 234.195 26.7324V33.541C234.195 34.8991 234.368 35.9792 234.715 36.7812V37H232.062ZM227.865 35.0723C228.658 35.0723 229.41 34.8672 230.121 34.457C230.832 34.0469 231.347 33.5137 231.666 32.8574V29.8223H229.684C226.585 29.8223 225.035 30.7292 225.035 32.543C225.035 33.3359 225.299 33.9557 225.828 34.4023C226.357 34.849 227.036 35.0723 227.865 35.0723ZM240.553 22.207L240.635 24.0664C241.765 22.6445 243.242 21.9336 245.064 21.9336C248.191 21.9336 249.768 23.6973 249.795 27.2246V37H247.266V27.2109C247.257 26.1445 247.01 25.3561 246.527 24.8457C246.053 24.3353 245.311 24.0801 244.299 24.0801C243.479 24.0801 242.758 24.2988 242.139 24.7363C241.519 25.1738 241.036 25.748 240.689 26.459V37H238.16V22.207H240.553ZM259.543 35.209C260.445 35.209 261.234 34.9355 261.908 34.3887C262.583 33.8418 262.956 33.1582 263.029 32.3379H265.422C265.376 33.1855 265.085 33.9922 264.547 34.7578C264.009 35.5234 263.289 36.1341 262.387 36.5898C261.493 37.0456 260.546 37.2734 259.543 37.2734C257.529 37.2734 255.924 36.6035 254.73 35.2637C253.546 33.9147 252.953 32.0736 252.953 29.7402V29.3164C252.953 27.8763 253.217 26.5957 253.746 25.4746C254.275 24.3535 255.031 23.4831 256.016 22.8633C257.009 22.2435 258.18 21.9336 259.529 21.9336C261.188 21.9336 262.564 22.4303 263.658 23.4238C264.761 24.4173 265.349 25.707 265.422 27.293H263.029C262.956 26.3359 262.592 25.5521 261.936 24.9414C261.288 24.3216 260.486 24.0117 259.529 24.0117C258.244 24.0117 257.246 24.4766 256.535 25.4062C255.833 26.3268 255.482 27.6621 255.482 29.4121V29.8906C255.482 31.5951 255.833 32.9076 256.535 33.8281C257.237 34.7487 258.24 35.209 259.543 35.209ZM274.404 37.2734C272.399 37.2734 270.768 36.6172 269.51 35.3047C268.252 33.9831 267.623 32.2194 267.623 30.0137V29.5488C267.623 28.0814 267.901 26.7734 268.457 25.625C269.022 24.4674 269.806 23.5651 270.809 22.918C271.82 22.2617 272.914 21.9336 274.09 21.9336C276.013 21.9336 277.508 22.5671 278.574 23.834C279.641 25.1009 280.174 26.9147 280.174 29.2754V30.3281H270.152C270.189 31.7865 270.613 32.9668 271.424 33.8691C272.244 34.7624 273.283 35.209 274.541 35.209C275.434 35.209 276.191 35.0267 276.811 34.6621C277.43 34.2975 277.973 33.8145 278.438 33.2129L279.982 34.416C278.743 36.321 276.883 37.2734 274.404 37.2734ZM274.09 24.0117C273.069 24.0117 272.212 24.3854 271.52 25.1328C270.827 25.8711 270.398 26.9102 270.234 28.25H277.645V28.0586C277.572 26.7734 277.225 25.7799 276.605 25.0781C275.986 24.3672 275.147 24.0117 274.09 24.0117ZM293.49 18.625V22.207H296.252V24.1621H293.49V33.3359C293.49 33.9284 293.613 34.375 293.859 34.6758C294.105 34.9674 294.525 35.1133 295.117 35.1133C295.409 35.1133 295.81 35.0586 296.32 34.9492V37C295.655 37.1823 295.008 37.2734 294.379 37.2734C293.249 37.2734 292.396 36.9316 291.822 36.248C291.248 35.5645 290.961 34.5938 290.961 33.3359V24.1621H288.268V22.207H290.961V18.625H293.49ZM305.357 37.2734C303.352 37.2734 301.721 36.6172 300.463 35.3047C299.205 33.9831 298.576 32.2194 298.576 30.0137V29.5488C298.576 28.0814 298.854 26.7734 299.41 25.625C299.975 24.4674 300.759 23.5651 301.762 22.918C302.773 22.2617 303.867 21.9336 305.043 21.9336C306.966 21.9336 308.461 22.5671 309.527 23.834C310.594 25.1009 311.127 26.9147 311.127 29.2754V30.3281H301.105C301.142 31.7865 301.566 32.9668 302.377 33.8691C303.197 34.7624 304.236 35.209 305.494 35.209C306.387 35.209 307.144 35.0267 307.764 34.6621C308.383 34.2975 308.926 33.8145 309.391 33.2129L310.936 34.416C309.696 36.321 307.837 37.2734 305.357 37.2734ZM305.043 24.0117C304.022 24.0117 303.165 24.3854 302.473 25.1328C301.78 25.8711 301.352 26.9102 301.188 28.25H308.598V28.0586C308.525 26.7734 308.178 25.7799 307.559 25.0781C306.939 24.3672 306.1 24.0117 305.043 24.0117ZM323.199 37C323.053 36.7083 322.935 36.1888 322.844 35.4414C321.668 36.6628 320.264 37.2734 318.633 37.2734C317.174 37.2734 315.976 36.8633 315.037 36.043C314.107 35.2135 313.643 34.1654 313.643 32.8984C313.643 31.3581 314.226 30.1641 315.393 29.3164C316.568 28.4596 318.218 28.0312 320.342 28.0312H322.803V26.8691C322.803 25.985 322.538 25.2832 322.01 24.7637C321.481 24.235 320.702 23.9707 319.672 23.9707C318.77 23.9707 318.013 24.1986 317.402 24.6543C316.792 25.11 316.486 25.6615 316.486 26.3086H313.943C313.943 25.5703 314.203 24.8594 314.723 24.1758C315.251 23.4831 315.962 22.9362 316.855 22.5352C317.758 22.1341 318.747 21.9336 319.822 21.9336C321.527 21.9336 322.862 22.362 323.828 23.2188C324.794 24.0664 325.296 25.2376 325.332 26.7324V33.541C325.332 34.8991 325.505 35.9792 325.852 36.7812V37H323.199ZM319.002 35.0723C319.795 35.0723 320.547 34.8672 321.258 34.457C321.969 34.0469 322.484 33.5137 322.803 32.8574V29.8223H320.82C317.721 29.8223 316.172 30.7292 316.172 32.543C316.172 33.3359 316.436 33.9557 316.965 34.4023C317.493 34.849 318.173 35.0723 319.002 35.0723ZM331.676 22.207L331.744 23.8477C332.829 22.5716 334.292 21.9336 336.133 21.9336C338.202 21.9336 339.61 22.7266 340.357 24.3125C340.85 23.6016 341.488 23.0273 342.271 22.5898C343.064 22.1523 343.999 21.9336 345.074 21.9336C348.319 21.9336 349.969 23.6517 350.023 27.0879V37H347.494V27.2383C347.494 26.181 347.253 25.3926 346.77 24.873C346.286 24.3444 345.475 24.0801 344.336 24.0801C343.397 24.0801 342.618 24.3626 341.998 24.9277C341.378 25.4837 341.018 26.2357 340.918 27.1836V37H338.375V27.3066C338.375 25.1556 337.322 24.0801 335.217 24.0801C333.558 24.0801 332.423 24.7865 331.812 26.1992V37H329.283V22.207H331.676Z" fill="white"/>
</svg>
